<svg width="400" height="110" viewBox="0 0 400 110" fill="none" xmlns="http://www.w3.org/2000/svg">
<path d="M378.8 108.3V31H399.3V108.3H378.8ZM389 21.8C386 21.8 383.4 20.7 381.2 18.6C379.1 16.4 378 13.8 378 10.9C378 8 379.1 5.4 381.2 3.3C383.4 1.1 386 0 389 0C392 0 394.5 1.1 396.6 3.3C398.8 5.4 399.9 7.9 399.9 10.9C399.9 13.9 398.8 16.4 396.6 18.6C394.5 20.7 391.9 21.8 389 21.8Z" fill="#ffffff"/>
<path d="M0 108.3V63.4C0 57.5 1.4 52 4.3 47.1C7.2 42.1 11.3 38.2 16.7 35.4C22.2 32.4 28.7 30.9 36.4 30.9C44.1 30.9 43.5 31.3 46.5 32.2C49.7 33 52.6 34.2 55.3 35.8C58 37.4 60.3 39.3 62.3 41.4H62.5C64.6 39.2 67 37.3 69.6 35.8C72.3 34.2 75.2 33 78.4 32.2C81.6 31.3 85 30.9 88.7 30.9C96.3 30.9 102.8 32.4 108.2 35.4C113.7 38.3 117.8 42.2 120.7 47.1C123.6 52.1 125 57.5 125 63.4V108.3H104.6V63.4C104.6 60.6 103.9 58.1 102.4 55.8C101 53.5 99.1 51.7 96.8 50.3C94.4 48.9 91.7 48.2 88.8 48.2C85.9 48.2 83.2 48.9 80.8 50.3C78.4 51.7 76.5 53.5 75 55.8C73.6 58.1 72.9 60.6 72.9 63.4V108.3H52.5V63.4C52.5 60.6 51.8 58.1 50.3 55.8C48.9 53.5 47 51.7 44.7 50.3C42.3 48.9 39.6 48.2 36.7 48.2C33.8 48.2 31.1 48.9 28.7 50.3C26.3 51.7 24.4 53.5 22.9 55.8C21.5 58.1 20.8 60.6 20.8 63.4V108.3H0.400002H0Z" fill="#ffffff"/>
<path d="M361.2 31V75.9C361.2 81.8 359.8 87.3 356.9 92.2C354 97.2 349.9 101.1 344.5 103.9C339 106.9 332.5 108.4 324.8 108.4C317.1 108.4 317.7 108 314.7 107.1C311.5 106.3 308.6 105.1 305.9 103.5C303.2 101.9 300.9 100 298.9 97.9H298.7C296.6 100.1 294.2 102 291.6 103.5C288.9 105.1 286 106.3 282.8 107.1C279.6 108 276.2 108.4 272.5 108.4C264.9 108.4 258.4 106.9 253 103.9C247.5 101 243.4 97.1 240.5 92.2C237.6 87.2 236.2 81.8 236.2 75.9V31H256.6V75.9C256.6 78.7 257.3 81.2 258.8 83.5C260.2 85.8 262.1 87.6 264.4 89C266.8 90.4 269.5 91.1 272.4 91.1C275.3 91.1 278 90.4 280.4 89C282.8 87.6 284.7 85.8 286.2 83.5C287.6 81.2 288.3 78.7 288.3 75.9V31H308.7V75.9C308.7 78.7 309.4 81.2 310.9 83.5C312.3 85.8 314.2 87.6 316.5 89C318.9 90.4 321.6 91.1 324.5 91.1C327.4 91.1 330.1 90.4 332.5 89C334.9 87.6 336.8 85.8 338.3 83.5C339.7 81.2 340.4 78.7 340.4 75.9V31H360.8H361.2Z" fill="#ffffff"/>
<path d="M220.1 68.9C219.6 47.6 202.1 30.4 180.6 30.4C159.1 30.4 141.1 48 141.1 69.8C141.1 91.6 158.8 109.2 180.6 109.2C202.4 109.2 196.6 106.6 202.9 102.3V108.4H220.1V68.9ZM180.6 92C168.3 92 158.3 82 158.3 69.7C158.3 57.4 168.3 47.4 180.6 47.4C192.9 47.4 202.9 57.4 202.9 69.7C202.9 82 192.9 92 180.6 92Z" fill="#ffffff"/>
</svg>
