<svg width="332" height="204" viewBox="0 0 332 204" fill="none" xmlns="http://www.w3.org/2000/svg">
<path d="M165.853 27.9851C184.382 6.54851 215.548 -0.968374 242.807 0.207006C284.165 1.9905 321.387 26.3388 329.964 68.3885C332.126 78.9884 331.724 89.9565 331.707 100.711L331.681 132.763C331.697 154.476 332.494 182.501 331.507 203.569C327.45 204.002 317.651 203.723 313.198 203.724L277.374 203.819C277.056 194.231 277.342 182.824 277.349 173.134L277.396 115.149C277.407 107.528 277.245 99.5209 277.41 91.9532C277.707 78.3211 276.024 68.6734 266.019 58.547C258.056 50.3539 247.117 45.7174 235.681 45.6891C223.875 45.5953 212.522 50.2193 204.152 58.5308C191.603 71.1127 193.014 81.9824 193.056 98.3251L193.142 124.154C193.054 150.657 193.107 177.161 193.301 203.664C176.987 204.364 155.414 203.756 138.709 203.737C138.328 195.405 138.759 183.537 138.766 174.842L138.802 114.251C138.803 110.593 138.845 106.916 138.804 103.258C138.621 86.5372 140.694 73.6431 128.744 60.1545C121.171 51.567 110.469 46.3632 99.0271 45.7053C87.3929 44.9993 75.9613 49.2802 67.0781 56.8557C51.0075 70.5606 54.4543 89.715 54.3839 109.1L54.3199 169.787C54.3651 180.233 54.9585 193.047 54.3881 203.275C50.5982 203.977 40.0029 203.734 35.4437 203.737C23.6939 203.811 11.9437 203.754 0.195174 203.568C-0.135493 196.913 0.129114 188.055 0.130741 181.275L0.14071 138.898L0.095848 102.965C0.0770637 90.4457 -0.661296 77.3887 2.27882 65.1483C11.9165 25.0251 46.2977 3.65877 85.6457 0.366766C87.171 0.0613971 93.8105 -0.0030352 95.572 0.000107532C114.959 0.0325824 135.303 5.14528 151.497 16.0296C157.511 20.0711 160.566 24.5626 165.853 27.9851Z" fill="#2F0B58"/>
</svg>
